<svg id="Layer_1" data-name="Layer 1" xmlns="http://www.w3.org/2000/svg" viewBox="0 0 611.14 525.1"><defs><style>.cls-1{fill:#38e07b;}.cls-2{fill:#0e1521;}</style></defs><rect class="cls-1" width="611.14" height="525.1"/><path class="cls-2" d="M515.32,378.9c-.62,4-3.29,6.13-8.06,6.2-6.2.11-12.42.11-18.63,0-4.22,0-7-2.4-7.56-6.28s.92-6.38,5.4-7.61c2.88-.8,3.43-2.24,3.39-4.9-.12-10.21-.09-20.42,0-30.64,0-2.06-.46-3-2.67-3.71-6.56-2.19-8.47-8.92-4-12.78a7.63,7.63,0,0,1,5.4-1.68c3.23,0,6.46,0,9.7,0s6.21,0,9.3,0c4.79.08,7.35,1.89,8,5.65.7,4.05-1,7.5-5.4,8.58-3.36.84-3.34,2.56-3.3,5.18q.18,15.14,0,30.25c0,2.11.48,3.14,2.69,3.79C514.25,372.41,515.93,375,515.32,378.9Z"/><path class="cls-2" d="M435.57,347.23c-1.5,2-1.24,3.26,0,5,5,6.88,9.93,13.85,14.91,20.79.52.73,1.07,1.45,1.58,2.2,3,4.38,2.94,6.73-.13,9.06a6.9,6.9,0,0,1-10.21-1.8c-3.72-5.41-7-11.18-10.42-16.78-1.81-2.92-3.65-5.84-5.48-8.75-.34.12-.68.27-1,.41,0,6.54.05,13.1,0,19.67-.05,4.69-2.49,7-7.22,7.11-4.22.11-7.09-2.43-7.11-6.88q-.09-30.26.06-60.52c0-4.42,2.72-6.69,7.26-6.67s6.85,2.11,7,6.5c.16,6.66,0,13.32,0,21.05,3.76-5.58,6.9-10.34,10.12-15,2-2.88,4-5.74,6.09-8.54,2.79-3.72,6.64-4.23,10.8-3,5.23,1.52,6.52,5.24,3.32,9.65C448.68,329.61,442.23,338.49,435.57,347.23Z"/><path class="cls-2" d="M390.52,359.59c0,4.15,0,8.27,0,12.43,0,5.5-2,8.09-6.93,9.13-5.22,1.11-10.45-1-12.11-5.31-.85-2.28-1.54-3.08-3.6-1.39-11.65,9.53-35.1,6.71-46.21-8.87-10.46-14.69-8.12-35.65,5.64-47.36,12.1-10.31,25.84-11.44,40.41-6.49,5.05,1.72,6.71,4.52,5.95,8.62-.59,3.34-3.85,5.63-8.63,5.67-5.83,0-11.59,0-17.34,1.41-7.78,2-13.35,6.34-15.14,14.34-1.52,6.84,1.18,12.62,6.62,16.73,6.65,5,14,6.33,21.9,2.75a27.17,27.17,0,0,0,7.72-5.78c.62-.62,1.3-1.39.83-2.37s-1.37-.55-2.1-.55c-4.52,0-9.05.11-13.57,0-4.68-.09-7.71-2.77-7.94-6.76-.27-4.44,2.2-7.76,6.89-8.23,10.18-1,20.41-.68,30.62-.27,4.24.16,6.78,3.49,6.86,7.94.1,4.79,0,9.57,0,14.36Z"/><path class="cls-2" d="M297.08,331.92c0,12.67,0,25.36-.09,38,0,3.38-.6,6.56-4.16,8.06a9.67,9.67,0,0,1-10.9-2.84c-3.95-4.81-6.94-10.28-10.34-15.46a16.86,16.86,0,0,0-4.65-5.49c0,6.38,0,12,0,17.62s-2.53,8.57-7.6,8.62c-5.6.07-8.65-2.81-8.69-8.55-.06-18.37,0-36.75-.08-55.13,0-3.84.91-6.87,5.11-8,3.94-1,7.39.11,9.58,3.94,4.56,8,8.85,16.09,13.27,24.13a9.24,9.24,0,0,0,2.94,3.44V326.67c0-4.26-.2-8.54.08-12.8s3.15-6.27,7.85-6.14c4.38.12,7.15,2.29,7.34,6.32C297.05,320,297.08,326,297.08,331.92Z"/><path class="cls-2" d="M222.05,317.31c-11.22-9.35-26.3-9.17-37.24.46-8.08,7.12-11.38,16.37-11.81,25.82,0,8.77,2.22,15.8,6.71,22.1,13.07,18.41,39.23,17.34,50.51-2.06C238.75,349,235.08,328.14,222.05,317.31Zm-18.12,43.8c-8.22.09-14.88-7-15-16.09s6.66-16.54,15-16.64,15.14,7.34,15.34,16.34C219.39,353.38,212.27,361,203.93,361.11Z"/><path class="cls-2" d="M148,378.85c-.12,3.73-1.5,6.8-5.47,8-4.29,1.27-7.74.16-10.08-3.64-4.69-7.59-9.18-15.29-13.77-22.94-.36-.62-.78-1.23-1.16-1.86-.22.11-.45.22-.66.3,0,6.48.08,12.93,0,19.4-.07,6.76-2.43,9.55-7.91,9.61-5.66.05-8.71-3.33-8.73-9.95-.08-17.46,0-34.93,0-52.39,0-3.42.47-6.5,4.22-7.89a10,10,0,0,1,11.26,2.91c4,5.11,6.6,11.11,10,16.61a46.53,46.53,0,0,0,6.47,8.9V331.82c0-3.62-.1-7.23,0-10.86.12-5.22,2.88-7.9,7.9-7.86s7.94,2.81,8,7.9c.06,15.4,0,30.79,0,46.19C148,371.07,148.13,375,148,378.85Z"/><path class="cls-2" d="M142.59,228.79c-1.31,3.85-.47,7.12,1,10.45q10.57,23.32,21.24,46.6c.81,1.75,1.79,3.47,2.45,5.28,1.88,5.15-.62,9.28-6.06,10.24-4.23.77-8.51.61-12.78.89-5.26.36-8.58-2.07-10.64-6.7q-10.73-24.07-21.49-48.14c-.28-.67-.61-1.29-.91-1.94l-.79.25q0,25.25,0,50.47c0,7.89-1.5,9.59-9.22,10.36-4,.39-8,.75-12,1-3.14.18-4.73-1.63-5.11-4.6a25.3,25.3,0,0,1-.11-3.48q0-54.76,0-109.52c0-2.47,0-4.94-1.47-7.1a7.44,7.44,0,0,0-6.54-3.47c-4.15.06-8.29.14-12.42.06a6.13,6.13,0,0,1-6.24-6c-.09-3.41,2.27-5.81,6.16-6,4.53-.16,9.05-.25,13.57-.18,3.13,0,4.74-1.61,5.69-4.29.12-.38.32-.72.41-1.09,2.72-11.89,9.15-13,19.85-11.8,5.23.57,7.41,3.5,7.43,9.1q.11,32,.15,64.07v2.33c1.55.23,1.32-1,1.59-1.74l26.9-76c3.18-9,6-10.81,15.59-10.38a40.06,40.06,0,0,1,4.63.44c6.44,1,8.08,3.74,6,9.94C160.57,174.84,151.69,201.85,142.59,228.79Z"/><path class="cls-2" d="M549.6,173.3c-.06,3.72-2.6,6-7,6-5.44.08-10.87,0-16.29.09-6,.11-8.44,2.54-8.44,8.57q0,54.33,0,108.64v4.27c0,3-1.58,4.71-4.58,4.42a131.07,131.07,0,0,1-14.57-1.93c-3.68-.77-6-3.47-6.53-7.33a37.88,37.88,0,0,1-.3-4.63q0-32.81,0-65.58h-.07V160.27c0-7.83,2.81-10.73,10.6-11,10.6-.36,13.59,1.6,17,11.85,1.38,4.07,3.63,6.31,8.15,6.15,5-.2,10.09-.18,15.13-.07C547.16,167.29,549.63,169.6,549.6,173.3Z"/><path class="cls-2" d="M246.69,297.89l-52.36,2.32c-3.74.16-6.26-1.83-6.52-5.11s1.79-5.6,5.77-5.8c14.6-.75,29.21-1.48,43.83-1.93,19.53-.6,39.07-.94,58.61-1.38,1.3,0,2.6-.09,3.89,0,4.08.25,6.24,2.35,6.19,5.95-.05,3.43-2,5.21-6.21,5.27-7.77.12-15.54.14-23.3.16q-14.94,0-29.89,0Z"/><path class="cls-2" d="M337,297.28c-3.62,0-7.23.09-10.84,0-3.86-.13-6.4-2.64-6.22-5.91s2.23-4.82,6.21-4.8c6.84,0,13.68.14,20.52.26,1.66,0,3.42,0,4.78,1.2a5.44,5.44,0,0,1,1.74,6,4.43,4.43,0,0,1-4.58,3.43c-3.87,0-7.74,0-11.61,0Z"/><path class="cls-2" d="M384.17,298.82c-3.74-.19-7.49-.33-11.24-.57-3.31-.21-5.12-2.23-5-5.59s2.09-5.13,5.19-5.07c7.24.14,14.49.49,21.71,1,3.58.26,5.6,2.79,5.33,5.87-.29,3.31-2.18,4.72-6.29,4.64-1.68,0-3.36-.15-5-.19s-3.1,0-4.66,0Z"/><path class="cls-2" d="M433,302c-4.51-.29-9-.51-13.54-.88-4.25-.34-6.25-2.24-6.07-5.54s2.94-5.2,7-4.9c5.28.39,10.57.75,15.85,1.14,4.16.31,6.53,2.55,6.19,5.83s-2.83,5-7.1,4.63L433,302.1Z"/><path class="cls-2" d="M464.19,294.15a45,45,0,0,1,6,.85,4.83,4.83,0,0,1,3.77,5.89c-.46,2.72-2.18,4.42-5.1,4.29a72.93,72.93,0,0,1-9.23-.83c-2.9-.52-3.88-2.88-3.7-5.54s1.66-4.56,4.66-4.65C461.71,294.12,462.87,294.15,464.19,294.15Z"/><path class="cls-2" d="M252.54,259.17a33.09,33.09,0,0,1-.22,4.22,10.66,10.66,0,0,1-.66,2.75,3.36,3.36,0,0,1-1.09,1.52,2.35,2.35,0,0,1-1.43.48h-56.6a7.24,7.24,0,0,1-4.85-1.69c-1.3-1.15-1.95-3-1.95-5.55V162.68q0-3.83,1.95-5.54a7.19,7.19,0,0,1,4.85-1.7H248.8a2.3,2.3,0,0,1,1.38.45,3.11,3.11,0,0,1,1,1.52,12,12,0,0,1,.65,2.79,35.55,35.55,0,0,1,.23,4.31,33.92,33.92,0,0,1-.23,4.13,11.13,11.13,0,0,1-.65,2.75,3.55,3.55,0,0,1-1,1.52,2.15,2.15,0,0,1-1.38.48H208.56V200.9h34.05a2.34,2.34,0,0,1,1.43.49,3.5,3.5,0,0,1,1.1,1.48,10.3,10.3,0,0,1,.64,2.7,37.64,37.64,0,0,1,0,8.31,10.56,10.56,0,0,1-.64,2.67A3.26,3.26,0,0,1,244,218a2.56,2.56,0,0,1-1.43.43H208.56v31.78h40.58a2.36,2.36,0,0,1,1.43.49,3.36,3.36,0,0,1,1.09,1.52,10.55,10.55,0,0,1,.66,2.75A33.09,33.09,0,0,1,252.54,259.17Z"/><path class="cls-2" d="M362.61,186.53a44.58,44.58,0,0,0-10.92-17.11A46.27,46.27,0,0,0,334,159q-10.49-3.54-25.57-3.54H279.53a7.1,7.1,0,0,0-4.82,1.7q-2,1.71-2,5.54V260.9c0,2.56.66,4.4,2,5.55a7.14,7.14,0,0,0,4.82,1.69h26.91q15,0,25.83-3.27a46.74,46.74,0,0,0,18.42-10.22,45.16,45.16,0,0,0,11.62-18q4.05-11,4.06-26.51A68.18,68.18,0,0,0,362.61,186.53ZM340.53,228a31.74,31.74,0,0,1-6.43,12.25,26.51,26.51,0,0,1-10.77,7.34A44.87,44.87,0,0,1,307.49,250H295.55V173.39h11.59c7,0,12.71,1,17,2.83a28,28,0,0,1,10.62,7.88,31.72,31.72,0,0,1,6,11.92,56.67,56.67,0,0,1,1.88,14.9A60.93,60.93,0,0,1,340.53,228Z"/><path class="cls-2" d="M474.62,264.57a33,33,0,0,0-1.31-5l-34.84-99.89a8.24,8.24,0,0,0-1.27-2.61,4.42,4.42,0,0,0-2.43-1.43,21.85,21.85,0,0,0-4.74-.62c-2-.07-4.77-.13-8.19-.13-3,0-5.34.06-7.15.13a17.64,17.64,0,0,0-4.22.62,4.25,4.25,0,0,0-2.22,1.38,9,9,0,0,0-1.21,2.4l-34.76,100a29,29,0,0,0-1.3,4.86,3.37,3.37,0,0,0,.61,2.84,4.7,4.7,0,0,0,3.12,1.25,56.56,56.56,0,0,0,6.28.27c2.5,0,4.52-.05,6.06-.18a12.65,12.65,0,0,0,3.56-.64,3.74,3.74,0,0,0,1.84-1.31,6.82,6.82,0,0,0,.91-2l7.13-22h42.34l7.56,22.64a6.07,6.07,0,0,0,.88,1.84,3.46,3.46,0,0,0,1.82,1.07,16.83,16.83,0,0,0,3.79.54c1.66.09,4,.12,6.94.12s5.08-.07,6.7-.21a5.7,5.7,0,0,0,3.4-1.13A3.12,3.12,0,0,0,474.62,264.57Zm-69.07-39.71L421.48,177h.09l15.95,47.89Z"/></svg>